<svg xmlns="http://www.w3.org/2000/svg" viewBox="0 0 124.42 56.78"><defs><style>.cls-1{fill:#c13033;}</style></defs><g id="Capa_2" data-name="Capa 2"><g id="Capa_1-2" data-name="Capa 1"><path class="cls-1" d="M74.07,31.1H69l-1.9,7.09H63.05L67.82,20.4a3,3,0,0,1,2.63-2.14h6.77c4.22,0,5.81,2.26,4.7,6.42C80.86,28.61,78.06,31.1,74.07,31.1ZM74,27.49a3.56,3.56,0,0,0,3.85-2.87c.52-1.93-.19-2.9-2.1-2.9H71.6l-1.55,5.77Z"/><path class="cls-1" d="M86.29,22.69c1.26,0,1.71.61,1.37,1.87L84,38.19h-3.9l4.16-15.5Zm1.18-4.43c1.29,0,1.74.65,1.37,1.91l-.31,1.14H84.64l.81-3Z"/><path class="cls-1" d="M95.52,20.17l-4.83,18h-3.9l5.34-19.93h2A1.42,1.42,0,0,1,95.52,20.17Z"/><path class="cls-1" d="M100,26.73h-3.9c1.24-2.87,3.64-4.28,7.21-4.28,4.28,0,6.07,1.41,5.39,4.28L107.27,32c-1.15,4.28-4.24,6.18-8.51,6.47-3.8.3-5.91-1.43-5-4.86,1.09-3.72,4-4.72,8.08-5.1,1.73-.21,2.71-.7,2.94-1.55s-.56-1.32-2.17-1.32C101.23,25.65,100.38,26,100,26.73Zm3.55,5.1.39-1.43a20.49,20.49,0,0,1-3.36.93c-1.63.3-2.62,1-2.92,2.17s.24,1.82,1.47,1.82A4.41,4.41,0,0,0,103.53,31.83Z"/><path class="cls-1" d="M115,35.38c1.64,0,2.59-.47,2.86-1.47.21-.79-1-1.43-3.51-1.9-3.26-.62-4.61-2.14-4-4.57.89-3.35,4-4.93,7.52-5a6.23,6.23,0,0,1,4.39,1.32,3.9,3.9,0,0,1,.84,3.78h-2.47c-.9,0-1.4-.35-1.47-1s-.77-1.06-2.06-1.06c-1.52,0-2.39.41-2.61,1.2s.62,1.41,2.54,1.79c2.5.53,4,1.2,4.69,2a3.18,3.18,0,0,1,.34,2.76c-1,3.81-4.38,5.21-8.49,5.21-2.17,0-3.68-.46-4.49-1.37s-1.17-2.23-.69-4h4C112,34.79,113.11,35.38,115,35.38Z"/><circle class="cls-1" cx="123.17" cy="36.94" r="1.26"/><path class="cls-1" d="M35,28.42c1-3.86-.38-5.78-4.18-5.78H22.53l-3.08,11.5h7.88C31.4,34.2,34,32.27,35,28.42Z"/><path class="cls-1" d="M55.76,26,31.09,1.05a3.54,3.54,0,0,0-5,0L1.05,25.8a3.52,3.52,0,0,0,0,5l8.6,8.69L15,19.41a5.92,5.92,0,0,1,5.23-4.26H33.72c8.41,0,11.58,4.5,9.36,12.79C41,35.76,35.39,40.73,27.45,40.73h-10L16,45.94l9.68,9.79a3.54,3.54,0,0,0,5,0L55.73,31A3.52,3.52,0,0,0,55.76,26Z"/></g></g></svg>