<svg xmlns="http://www.w3.org/2000/svg" viewBox="0 0 124.53 124.52"><defs><style>.cls-1{fill:#ffffff;}</style></defs><g id="Layer_2" data-name="Layer 2"><g id="Capa_1" data-name="Capa 1"><path class="cls-1" d="M122.29,57,68.18,2.3a7.74,7.74,0,0,0-11-.06L2.3,56.57a7.75,7.75,0,0,0-.06,11L21.11,86.59l11.79-44c1.34-5,6.48-9.35,11.47-9.35H74c18.44,0,25.4,9.87,20.53,28.05-4.6,17.16-16.86,28-34.28,28h-22l-3.07,11.43,14,14.12,7.28,7.35a7.86,7.86,0,0,0,5.46,2.3,7.71,7.71,0,0,0,5.49-2.24L122.23,68A7.74,7.74,0,0,0,122.29,57Z" transform="translate(0)"/><path class="cls-1" d="M76.76,61c2.26-8.45-.83-12.67-9.16-12.67H49.41L42.66,73.56H60C68.88,73.69,74.49,69.47,76.76,61Z" transform="translate(0)"/></g></g></svg>